<svg xmlns="http://www.w3.org/2000/svg" viewBox="0 0 720 240" role="img" aria-labelledby="title desc">
  <title id="title">SENSOR PRO</title>
  <desc id="desc">Logo circular de SENSOR PRO con circuito técnico en blanco y azul.</desc>
  <rect width="720" height="240" rx="28" fill="#020817"/>
  <g transform="translate(36 20)" fill="none" stroke="#ffffff" stroke-linecap="round" stroke-linejoin="round">
    <circle cx="100" cy="100" r="88" stroke-width="10"/>
    <circle cx="100" cy="100" r="68" stroke-width="7" opacity=".96"/>
    <circle cx="100" cy="100" r="26" stroke-width="7"/>

    <path d="M100 32v37" stroke-width="8"/>
    <path d="M100 131v37" stroke-width="8"/>
    <path d="M32 100h37" stroke-width="8"/>
    <path d="M131 100h37" stroke-width="8"/>

    <path d="M58 48l20 20" stroke-width="8"/>
    <path d="M142 48l-20 20" stroke-width="8"/>
    <path d="M58 152l20-20" stroke-width="8"/>
    <path d="M142 152l-20-20" stroke-width="8"/>

    <path d="M48 75H28" stroke-width="6"/>
    <path d="M48 125H28" stroke-width="6"/>
    <path d="M152 75h20" stroke-width="6"/>
    <path d="M152 125h20" stroke-width="6"/>
    <path d="M75 48V28" stroke-width="6"/>
    <path d="M125 48V28" stroke-width="6"/>
    <path d="M75 152v20" stroke-width="6"/>
    <path d="M125 152v20" stroke-width="6"/>

    <circle cx="48" cy="75" r="5" fill="#ffffff" stroke="none"/>
    <circle cx="152" cy="75" r="5" fill="#ffffff" stroke="none"/>
    <circle cx="48" cy="125" r="5" fill="#ffffff" stroke="none"/>
    <circle cx="152" cy="125" r="5" fill="#ffffff" stroke="none"/>
    <circle cx="75" cy="48" r="5" fill="#ffffff" stroke="none"/>
    <circle cx="125" cy="152" r="5" fill="#ffffff" stroke="none"/>
  </g>

  <g transform="translate(260 54)">
    <text x="0" y="76" fill="#ffffff" font-family="Arial, Helvetica, sans-serif" font-size="64" font-weight="900" letter-spacing="3">SENSOR</text>
    <text x="0" y="138" fill="#93c5fd" font-family="Arial, Helvetica, sans-serif" font-size="64" font-weight="900" letter-spacing="3">PRO</text>
    <path d="M0 154h330" stroke="#ff8a00" stroke-width="10" stroke-linecap="round"/>
  </g>
</svg>
